<?xml version="1.0" encoding="utf-8"?>
<!-- Generator: Adobe Illustrator 22.1.0, SVG Export Plug-In . SVG Version: 6.00 Build 0)  -->
<svg version="1.1" id="clock-icon" xmlns="http://www.w3.org/2000/svg" xmlns:xlink="http://www.w3.org/1999/xlink" x="0px" y="0px"
	 viewBox="0 0 126.7398 126.7399" enable-background="new 0 0 126.7398 126.7399" xml:space="preserve">
<g>
	<g>
		<g>
			<path fill="#FFFFFF" stroke="#0075D5" stroke-width="1.7638" stroke-miterlimit="10" d="M125.8579,79.4958V47.244h-8.3976
				c-1.1026-3.7029-2.5943-7.295-4.4467-10.7137l5.9444-5.9444L96.1539,7.7818l-5.9444,5.9444
				c-3.4187-1.8525-7.0107-3.3441-10.7137-4.4467V0.8819H47.244v8.3976c-3.7029,1.1026-7.295,2.5943-10.7137,4.4467l-5.9444-5.9444
				L7.7818,30.5859l5.9444,5.9444c-1.8525,3.4187-3.3441,7.0107-4.4467,10.7137H0.8819v32.2519h8.3976
				c1.1026,3.7029,2.5943,7.295,4.4467,10.7137L7.7818,96.154l22.8041,22.8041l5.9444-5.9444
				c3.4187,1.8525,7.0107,3.3441,10.7137,4.4467v8.3976h32.2519v-8.3976c3.7029-1.1026,7.295-2.5943,10.7137-4.4467l5.9444,5.9444
				l22.8041-22.8041l-5.9444-5.9444c1.8525-3.4187,3.3441-7.0107,4.4467-10.7137L125.8579,79.4958L125.8579,79.4958z
				 M113.9892,76.958c-1.1752,4.3883-2.9329,8.6233-5.2248,12.5883l-0.774,1.3405l5.2671,5.2671l-17.1036,17.1036l-5.2671-5.2671
				l-1.3405,0.774c-3.965,2.2919-8.2,4.0496-12.5883,5.2248l-1.4937,0.4011v7.4361H51.2754v-7.4361l-1.4937-0.3991
				c-4.3883-1.1752-8.6233-2.9329-12.5883-5.2248l-1.3405-0.774l-5.2671,5.2671L13.4823,96.1559l5.2671-5.2671l-0.774-1.3405
				c-2.2919-3.965-4.0496-8.2-5.2248-12.5883l-0.4011-1.4957H4.9134V51.2754h7.4361l0.3991-1.4937
				c1.1752-4.3883,2.9329-8.6233,5.2248-12.5883l0.774-1.3405l-5.2671-5.2671l17.1036-17.1035l5.2671,5.2671l1.3405-0.774
				c3.965-2.2919,8.2-4.0496,12.5883-5.2248l1.4957-0.4011V4.9134h24.1889v7.4361l1.4937,0.3991
				c4.3883,1.1752,8.6233,2.9329,12.5883,5.2248l1.3405,0.774l5.2671-5.2671l17.1036,17.1036l-5.2671,5.2671l0.774,1.3405
				c2.2919,3.965,4.0496,8.2,5.2248,12.5883l0.4011,1.4957h7.4361v24.1889h-7.4361L113.9892,76.958z"/>
			<path fill="#FFFFFF" stroke="#0075D5" stroke-width="1.7638" stroke-miterlimit="10" d="M63.3699,17.0078
				c-25.5636,0-46.3621,20.7984-46.3621,46.3621s20.7985,46.3621,46.3621,46.3621s46.3621-20.7985,46.3621-46.3621
				S88.9335,17.0078,63.3699,17.0078z M63.3699,105.7005c-23.3423,0-42.3306-18.9883-42.3306-42.3306
				s18.9883-42.3306,42.3306-42.3306s42.3306,18.9883,42.3306,42.3306S86.7122,105.7005,63.3699,105.7005z"/>
			<path fill="#FFFFFF" stroke="#0075D5" stroke-width="1.7638" stroke-miterlimit="10" d="M69.4171,42.7368l-6.0472-12.0945
				l-6.0472,12.0945v15.3559c-1.2397,1.4171-2.0158,3.2494-2.0158,5.2772c0,2.0278,0.7761,3.8581,2.0157,5.2772V84.003
				l6.0473,12.0945l6.0472-12.0945V68.6471c1.2397-1.4171,2.0158-3.2494,2.0158-5.2772c0-2.0278-0.7761-3.8581-2.0157-5.2772
				L69.4171,42.7368L69.4171,42.7368z M61.3542,43.6882l2.0157-4.0315l2.0157,4.0315v11.905
				c-0.649-0.1694-1.3162-0.2863-2.0157-0.2863c-0.6995,0-1.3667,0.1169-2.0157,0.2862V43.6882z M65.3856,83.0516l-2.0157,4.0315
				l-2.0157-4.0315v-11.905c0.649,0.1694,1.3162,0.2863,2.0157,0.2863c0.6995,0,1.3667-0.1169,2.0157-0.2862V83.0516z
				 M63.3699,67.4014c-2.2234,0-4.0315-1.8081-4.0315-4.0315c0-2.2234,1.8081-4.0315,4.0315-4.0315
				c2.2234,0,4.0315,1.8081,4.0315,4.0315C67.4014,65.5933,65.5933,67.4014,63.3699,67.4014z"/>
			
				<rect x="61.3542" y="25.0708" fill="#FFFFFF" stroke="#0075D5" stroke-width="1.7638" stroke-miterlimit="10" width="4.0315" height="4.0315"/>
			
				<rect x="43.2098" y="29.9313" transform="matrix(0.866 -0.5 0.5 0.866 -9.9145 26.8935)" fill="#FFFFFF" stroke="#0075D5" stroke-width="1.7638" stroke-miterlimit="10" width="4.0313" height="4.0313"/>
			
				<rect x="29.9284" y="43.214" transform="matrix(0.5 -0.866 0.866 0.5 -23.1981 50.2785)" fill="#FFFFFF" stroke="#0075D5" stroke-width="1.7638" stroke-miterlimit="10" width="4.0313" height="4.0313"/>
			
				<rect x="25.0708" y="61.3542" fill="#FFFFFF" stroke="#0075D5" stroke-width="1.7638" stroke-miterlimit="10" width="4.0315" height="4.0315"/>
			
				<rect x="29.9314" y="79.498" transform="matrix(0.8661 -0.4999 0.4999 0.8661 -36.47 26.8859)" fill="#FFFFFF" stroke="#0075D5" stroke-width="1.7638" stroke-miterlimit="10" width="4.0316" height="4.0316"/>
			
				<rect x="43.2156" y="92.7721" transform="matrix(0.4999 -0.8661 0.8661 0.4999 -59.474 86.5784)" fill="#FFFFFF" stroke="#0075D5" stroke-width="1.7638" stroke-miterlimit="10" width="4.0316" height="4.0316"/>
			
				<rect x="61.3542" y="97.6375" fill="#FFFFFF" stroke="#0075D5" stroke-width="1.7638" stroke-miterlimit="10" width="4.0315" height="4.0315"/>
			
				<rect x="79.4891" y="92.7792" transform="matrix(0.866 -0.5 0.5 0.866 -36.4784 53.454)" fill="#FFFFFF" stroke="#0075D5" stroke-width="1.7638" stroke-miterlimit="10" width="4.0313" height="4.0313"/>
			
				<rect x="92.7717" y="79.4989" transform="matrix(0.5 -0.866 0.866 0.5 -23.2006 122.844)" fill="#FFFFFF" stroke="#0075D5" stroke-width="1.7638" stroke-miterlimit="10" width="4.0313" height="4.0313"/>
			
				<rect x="97.6375" y="61.3542" fill="#FFFFFF" stroke="#0075D5" stroke-width="1.7638" stroke-miterlimit="10" width="4.0315" height="4.0315"/>
			
				<rect x="92.7753" y="43.2134" transform="matrix(0.866 -0.5 0.5 0.866 -9.9148 53.4564)" fill="#FFFFFF" stroke="#0075D5" stroke-width="1.7638" stroke-miterlimit="10" width="4.0313" height="4.0313"/>
			
				<rect x="79.495" y="29.9265" transform="matrix(0.4999 -0.8661 0.8661 0.4999 13.0994 86.57)" fill="#FFFFFF" stroke="#0075D5" stroke-width="1.7638" stroke-miterlimit="10" width="4.0316" height="4.0316"/>
		</g>
	</g>
</g>
</svg>
