<?xml version="1.0" encoding="utf-8"?>
<!-- Generator: Adobe Illustrator 22.1.0, SVG Export Plug-In . SVG Version: 6.00 Build 0)  -->
<svg version="1.1" id="dollarsun-icon" xmlns="http://www.w3.org/2000/svg" xmlns:xlink="http://www.w3.org/1999/xlink" x="0px"
	 y="0px" viewBox="0 0 123.2239 123.2239" enable-background="new 0 0 123.2239 123.2239" xml:space="preserve">
<g>
	<g>
		<g>
			<path fill="#0075D5" stroke="#FFFFFF" stroke-width="0.2479" stroke-miterlimit="10" d="M61.612,29.8762
				c-17.4983,0-31.7357,14.2374-31.7357,31.7357S44.1137,93.3477,61.612,93.3477S93.3477,79.1103,93.3477,61.612
				S79.1103,29.8762,61.612,29.8762z M61.612,89.3807c-15.3125,0-27.7688-12.4563-27.7688-27.7688S46.2995,33.8432,61.612,33.8432
				S89.3807,46.2995,89.3807,61.612S76.9245,89.3807,61.612,89.3807z"/>
			<path fill="#0075D5" stroke="#FFFFFF" stroke-width="0.2479" stroke-miterlimit="10" d="M65.5789,43.7606h-1.9835v-5.9505h-3.967
				v5.9505H57.645c-5.4685,0-9.9174,4.449-9.9174,9.9174s4.449,9.9174,9.9174,9.9174h7.9339c3.2807,0,5.9505,2.6698,5.9505,5.9505
				c0,3.2807-2.6698,5.9504-5.9505,5.9504H57.645c-3.2807,0-5.9505-2.6698-5.9505-5.9504v-1.9835h-3.967v1.9835
				c0,5.4685,4.449,9.9174,9.9174,9.9174h1.9835v5.9504h3.967v-5.9504h1.9835c5.4685,0,9.9174-4.449,9.9174-9.9174
				c0-5.4685-4.449-9.9174-9.9174-9.9174H57.645c-3.2807,0-5.9505-2.6698-5.9505-5.9505s2.6698-5.9505,5.9505-5.9505h7.9339
				c3.2807,0,5.9505,2.6698,5.9505,5.9505v1.9835h3.967V53.678C75.4964,48.2096,71.0474,43.7606,65.5789,43.7606z"/>
			
				<rect x="79.4633" y="59.6285" fill="#0075D5" stroke="#FFFFFF" stroke-width="0.2479" stroke-miterlimit="10" width="3.967" height="3.967"/>
			
				<rect x="39.7936" y="59.6285" fill="#0075D5" stroke="#FFFFFF" stroke-width="0.2479" stroke-miterlimit="10" width="3.967" height="3.967"/>
			
				<rect x="59.6285" y="19.9588" fill="#0075D5" stroke="#FFFFFF" stroke-width="0.2479" stroke-miterlimit="10" width="3.967" height="5.9505"/>
			
				<rect x="59.6285" y="8.0579" fill="#0075D5" stroke="#FFFFFF" stroke-width="0.2479" stroke-miterlimit="10" width="3.967" height="7.9339"/>
			
				<rect x="59.6285" y="0.124" fill="#0075D5" stroke="#FFFFFF" stroke-width="0.2479" stroke-miterlimit="10" width="3.967" height="3.967"/>
			
				<rect x="45.1989" y="24.7734" transform="matrix(0.9238 -0.3828 0.3828 0.9238 -6.6564 20.1016)" fill="#0075D5" stroke="#FFFFFF" stroke-width="0.2479" stroke-miterlimit="10" width="3.9669" height="4.0065"/>
			
				<rect x="39.6171" y="4.1116" transform="matrix(0.9239 -0.3826 0.3826 0.9239 -1.9241 16.9287)" fill="#0075D5" stroke="#FFFFFF" stroke-width="0.2479" stroke-miterlimit="10" width="3.9669" height="18.3805"/>
			
				<rect x="32.9312" y="32.8577" transform="matrix(0.7071 -0.7071 0.7071 0.7071 -14.4613 34.9143)" fill="#0075D5" stroke="#FFFFFF" stroke-width="0.2479" stroke-miterlimit="10" width="3.9669" height="4.1117"/>
			
				<rect x="27.6225" y="27.6868" transform="matrix(0.7071 -0.7071 0.7071 0.7071 -12.2631 29.6059)" fill="#0075D5" stroke="#FFFFFF" stroke-width="0.2479" stroke-miterlimit="10" width="3.9669" height="3.838"/>
			
				<rect x="19.849" y="16.6025" transform="matrix(0.7071 -0.7071 0.7071 0.7071 -9.0436 21.8326)" fill="#0075D5" stroke="#FFFFFF" stroke-width="0.2479" stroke-miterlimit="10" width="3.9669" height="10.4608"/>
			
				<rect x="23.6689" y="43.4875" transform="matrix(0.3828 -0.9238 0.9238 0.3828 -27.3237 52.53)" fill="#0075D5" stroke="#FFFFFF" stroke-width="0.2479" stroke-miterlimit="10" width="3.9669" height="6.4538"/>
			
				<rect x="13.2854" y="38.111" transform="matrix(0.3827 -0.9239 0.9239 0.3827 -29.7609 40.2901)" fill="#0075D5" stroke="#FFFFFF" stroke-width="0.2479" stroke-miterlimit="10" width="3.9671" height="8.6088"/>
			
				<rect x="4.4892" y="36.9651" transform="matrix(0.3828 -0.9238 0.9238 0.3828 -31.8229 29.9087)" fill="#0075D5" stroke="#FFFFFF" stroke-width="0.2479" stroke-miterlimit="10" width="3.9669" height="3.6118"/>
			
				<rect x="21.9423" y="59.6285" fill="#0075D5" stroke="#FFFFFF" stroke-width="0.2479" stroke-miterlimit="10" width="3.967" height="3.967"/>
			
				<rect x="12.0249" y="59.6285" fill="#0075D5" stroke="#FFFFFF" stroke-width="0.2479" stroke-miterlimit="10" width="5.9505" height="3.967"/>
			
				<rect x="0.124" y="59.6285" fill="#0075D5" stroke="#FFFFFF" stroke-width="0.2479" stroke-miterlimit="10" width="7.9339" height="3.967"/>
			
				<rect x="20.2239" y="74.9658" transform="matrix(0.9239 -0.3826 0.3826 0.9239 -27.5702 15.2629)" fill="#0075D5" stroke="#FFFFFF" stroke-width="0.2479" stroke-miterlimit="10" width="8.7309" height="3.9669"/>
			
				<rect x="4.3035" y="80.6264" transform="matrix(0.9239 -0.3827 0.3827 0.9239 -30.782 10.4712)" fill="#0075D5" stroke="#FFFFFF" stroke-width="0.2479" stroke-miterlimit="10" width="13.2522" height="3.9671"/>
			
				<rect x="30.1035" y="87.4616" transform="matrix(0.7071 -0.7071 0.7071 0.7071 -53.3565 50.0761)" fill="#0075D5" stroke="#FFFFFF" stroke-width="0.2479" stroke-miterlimit="10" width="7.3309" height="3.9669"/>
			
				<rect x="23.5668" y="94.8457" transform="matrix(0.7071 -0.7071 0.7071 0.7071 -60.7378 47.0241)" fill="#0075D5" stroke="#FFFFFF" stroke-width="0.2479" stroke-miterlimit="10" width="5.6549" height="3.9669"/>
			
				<rect x="17.3954" y="101.3179" transform="matrix(0.7071 -0.7071 0.7071 0.7071 -67.2065 44.3519)" fill="#0075D5" stroke="#FFFFFF" stroke-width="0.2479" stroke-miterlimit="10" width="5.0777" height="3.9669"/>
			
				<rect x="45.2639" y="94.4011" transform="matrix(0.3828 -0.9238 0.9238 0.3828 -59.909 103.0955)" fill="#0075D5" stroke="#FFFFFF" stroke-width="0.2479" stroke-miterlimit="10" width="3.8796" height="3.9669"/>
			
				<rect x="42.4982" y="101.0582" transform="matrix(0.3828 -0.9238 0.9238 0.3828 -67.7593 104.6592)" fill="#0075D5" stroke="#FFFFFF" stroke-width="0.2479" stroke-miterlimit="10" width="3.9014" height="3.9669"/>
			
				<rect x="34.6869" y="111.36" transform="matrix(0.3828 -0.9238 0.9238 0.3828 -79.9044 107.0836)" fill="#0075D5" stroke="#FFFFFF" stroke-width="0.2479" stroke-miterlimit="10" width="11.0078" height="3.9669"/>
			
				<rect x="59.6285" y="97.3147" fill="#0075D5" stroke="#FFFFFF" stroke-width="0.2479" stroke-miterlimit="10" width="3.967" height="7.9339"/>
			
				<rect x="59.6285" y="109.2156" fill="#0075D5" stroke="#FFFFFF" stroke-width="0.2479" stroke-miterlimit="10" width="3.967" height="13.8844"/>
			
				<rect x="74.1021" y="94.4299" transform="matrix(0.9238 -0.3828 0.3828 0.9238 -31.1595 36.4799)" fill="#0075D5" stroke="#FFFFFF" stroke-width="0.2479" stroke-miterlimit="10" width="3.9669" height="4.2128"/>
			
				<rect x="77.7134" y="101.7496" transform="matrix(0.9238 -0.3828 0.3828 0.9238 -34.2232 38.5267)" fill="#0075D5" stroke="#FFFFFF" stroke-width="0.2479" stroke-miterlimit="10" width="3.9669" height="7.0171"/>
			
				<rect x="81.8597" y="111.9083" transform="matrix(0.9239 -0.3827 0.3827 0.9239 -37.7404 40.8627)" fill="#0075D5" stroke="#FFFFFF" stroke-width="0.2479" stroke-miterlimit="10" width="3.9671" height="6.776"/>
			
				<rect x="89.1752" y="85.0762" transform="matrix(0.7071 -0.7071 0.7071 0.7071 -37.7604 91.1592)" fill="#0075D5" stroke="#FFFFFF" stroke-width="0.2479" stroke-miterlimit="10" width="3.9669" height="12.1686"/>
			
				<rect x="99.7157" y="96.9137" transform="matrix(0.7071 -0.7071 0.7071 0.7071 -42.1284 101.7005)" fill="#0075D5" stroke="#FFFFFF" stroke-width="0.2479" stroke-miterlimit="10" width="3.9669" height="9.5801"/>
			
				<rect x="96.5728" y="72.6322" transform="matrix(0.3827 -0.9239 0.9239 0.3827 -10.22 138.5341)" fill="#0075D5" stroke="#FFFFFF" stroke-width="0.2479" stroke-miterlimit="10" width="3.9671" height="8.5652"/>
			
				<rect x="107.1047" y="77.9304" transform="matrix(0.3827 -0.9239 0.9239 0.3827 -7.7438 150.9539)" fill="#0075D5" stroke="#FFFFFF" stroke-width="0.2479" stroke-miterlimit="10" width="3.9671" height="6.6828"/>
			
				<rect x="114.9418" y="82.8828" transform="matrix(0.3825 -0.924 0.924 0.3825 -5.8746 160.2169)" fill="#0075D5" stroke="#FFFFFF" stroke-width="0.2479" stroke-miterlimit="10" width="3.9674" height="3.2411"/>
			
				<rect x="97.3147" y="59.6285" fill="#0075D5" stroke="#FFFFFF" stroke-width="0.2479" stroke-miterlimit="10" width="9.9174" height="3.967"/>
			
				<rect x="111.1991" y="59.6285" fill="#0075D5" stroke="#FFFFFF" stroke-width="0.2479" stroke-miterlimit="10" width="3.967" height="3.967"/>
			
				<rect x="119.133" y="59.6285" fill="#0075D5" stroke="#FFFFFF" stroke-width="0.2479" stroke-miterlimit="10" width="3.967" height="3.967"/>
			
				<rect x="94.021" y="43.062" transform="matrix(0.9239 -0.3826 0.3826 0.9239 -9.5034 42.3037)" fill="#0075D5" stroke="#FFFFFF" stroke-width="0.2479" stroke-miterlimit="10" width="15.1772" height="3.9669"/>
			
				<rect x="112.0291" y="37.3569" transform="matrix(0.9238 -0.3828 0.3828 0.9238 -6.2736 47.1525)" fill="#0075D5" stroke="#FFFFFF" stroke-width="0.2479" stroke-miterlimit="10" width="6.6343" height="3.9669"/>
			
				<rect x="86.1275" y="32.6215" transform="matrix(0.7071 -0.7071 0.7071 0.7071 1.4864 72.7985)" fill="#0075D5" stroke="#FFFFFF" stroke-width="0.2479" stroke-miterlimit="10" width="4.9825" height="3.9669"/>
			
				<rect x="91.5982" y="24.8304" transform="matrix(0.7071 -0.7071 0.7071 0.7071 9.2788 76.0287)" fill="#0075D5" stroke="#FFFFFF" stroke-width="0.2479" stroke-miterlimit="10" width="9.6317" height="3.9669"/>
			
				<rect x="101.6757" y="17.5628" transform="matrix(0.7071 -0.7071 0.7071 0.7071 16.5456 79.0371)" fill="#0075D5" stroke="#FFFFFF" stroke-width="0.2479" stroke-miterlimit="10" width="4.0066" height="3.9669"/>
			
				<rect x="71.6626" y="21.2489" transform="matrix(0.3828 -0.9238 0.9238 0.3828 26.3718 85.9387)" fill="#0075D5" stroke="#FFFFFF" stroke-width="0.2479" stroke-miterlimit="10" width="11.6821" height="3.9669"/>
			
				<rect x="77.8948" y="7.668" transform="matrix(0.3828 -0.9238 0.9238 0.3828 42.3931 82.7581)" fill="#0075D5" stroke="#FFFFFF" stroke-width="0.2479" stroke-miterlimit="10" width="10.4782" height="3.9669"/>
		</g>
	</g>
</g>
</svg>
