<?xml version="1.0" encoding="utf-8"?>
<!-- Generator: Adobe Illustrator 22.1.0, SVG Export Plug-In . SVG Version: 6.00 Build 0)  -->
<svg version="1.1" id="idea" xmlns="http://www.w3.org/2000/svg" xmlns:xlink="http://www.w3.org/1999/xlink" x="0px" y="0px"
	 viewBox="0 0 123.9769 123.976" enable-background="new 0 0 123.9769 123.976" xml:space="preserve">
<g>
	<g>
		<g>
			<path fill="#0075D5" stroke="#FFFFFF" stroke-miterlimit="10" d="M115.065,49.9165
				c-3.5802-11.7621-14.2454-19.6643-26.539-19.6643h-0.6307C83.8905,19.831,73.8045,12.4009,61.9889,12.4009
				S40.0873,19.831,36.0826,30.2523h-0.6307c-12.2936,0-22.9588,7.9022-26.539,19.6643L0.5862,77.2787L0.5009,123.476h1.9835
				c5.6014,0,10.6097-2.5944,13.8844-6.6427v2.6757h1.9835c5.6014,0,10.6097-2.5944,13.8844-6.6427v2.6757h1.9835
				c9.844,0,17.8514-8.0093,17.8514-17.8513v-5.9505h-3.967v5.9505c0,6.9838-5.1809,12.7776-11.9009,13.7436V99.6742h-3.967v1.9835
				c0,6.9838-5.1809,12.7776-11.9009,13.7436v-11.7601h-3.967v1.9835c0,6.9838-5.1809,12.7776-11.9009,13.7436V78.1514
				l8.2414-27.0805c3.0089-9.8916,11.8751-16.5819,22.1634-16.8279c-0.4185,1.9121-0.6526,3.8916-0.6526,5.9266
				c0,8.2513,3.6,15.9393,9.9174,21.2411v2.5607h-3.967v3.967h3.967v3.967h-3.967v3.967h3.967v7.9339h3.967v3.967h3.967v-3.967
				h19.8348v3.967h3.967v-3.967h3.967v-7.9339h3.967v-3.967h-3.967v-3.967h3.967v-3.967h-3.967v-2.5607
				c6.3174-5.3038,9.9174-12.9898,9.9174-21.2411c0-2.0351-0.2341-4.0146-0.6526-5.9266
				c10.2883,0.244,19.1525,6.9343,22.1635,16.8279l8.2414,27.0805v41.2168c-6.72-0.966-11.9009-6.7597-11.9009-13.7436v-1.9835
				h-3.967v11.7601c-6.72-0.966-11.9009-6.7597-11.9009-13.7436v-1.9835h-3.967v11.7601c-6.72-0.966-11.9009-6.7597-11.9009-13.7436
				v-5.9505h-3.967v5.9505c0,9.842,8.0073,17.8513,17.8514,17.8513h1.9835v-2.6757c3.2747,4.0483,8.283,6.6427,13.8844,6.6427
				h1.9835v-2.6757c3.2747,4.0483,8.283,6.6427,13.8844,6.6427h1.9835V77.8559L115.065,49.9165z M75.8733,79.8394H48.1045v-3.967
				h27.7688V79.8394z M75.8733,71.9054H48.1045v-3.967h27.7688V71.9054z M76.635,58.9057l-0.7617,0.595v4.4708H63.9724V49.8868
				c4.5204-0.9223,7.9339-4.927,7.9339-9.7171c0-5.4685-4.449-9.9174-9.9174-9.9174s-9.9174,4.449-9.9174,9.9174
				c0,4.7881,3.4136,8.7948,7.9339,9.7171v14.0847H48.1045v-4.4708l-0.7617-0.595c-5.8176-4.558-9.1558-11.3872-9.1558-18.736
				c0-13.1247,10.6771-23.8018,23.8018-23.8018S85.7907,27.045,85.7907,40.1697C85.7907,47.5185,82.4525,54.3476,76.635,58.9057z
				 M61.9889,46.1201c-3.2807,0-5.9505-2.6698-5.9505-5.9505s2.6698-5.9505,5.9505-5.9505c3.2807,0,5.9505,2.6698,5.9505,5.9505
				S65.2696,46.1201,61.9889,46.1201z"/>
			<polygon fill="#0075D5" stroke="#FFFFFF" stroke-miterlimit="10" points="107.6091,99.6742 107.6091,77.4969 101.5336,61.2918 
				97.8166,62.6842 103.6421,78.2149 103.6421,99.6742 			"/>
			<rect x="87.7742" y="67.9385" fill="#0075D5" stroke="#FFFFFF" stroke-miterlimit="10" width="3.967" height="27.7688"/>
			<polygon fill="#0075D5" stroke="#FFFFFF" stroke-miterlimit="10" points="16.3688,99.6742 20.3358,99.6742 20.3358,78.2149 
				26.1613,62.6842 22.4442,61.2918 16.3688,77.4969 			"/>
			<rect x="32.2367" y="67.9385" fill="#0075D5" stroke="#FFFFFF" stroke-miterlimit="10" width="3.967" height="27.7688"/>
			<rect x="56.0385" y="87.7733" fill="#0075D5" stroke="#FFFFFF" stroke-miterlimit="10" width="3.967" height="27.7688"/>
			<rect x="56.0385" y="119.509" fill="#0075D5" stroke="#FFFFFF" stroke-miterlimit="10" width="3.967" height="3.967"/>
			<rect x="63.9724" y="87.7733" fill="#0075D5" stroke="#FFFFFF" stroke-miterlimit="10" width="3.967" height="23.8018"/>
			<rect x="63.9724" y="115.5421" fill="#0075D5" stroke="#FFFFFF" stroke-miterlimit="10" width="3.967" height="3.967"/>
			<rect x="60.0054" y="0.5" fill="#0075D5" stroke="#FFFFFF" stroke-miterlimit="10" width="3.967" height="7.9339"/>
			
				<rect x="42.1536" y="5.285" transform="matrix(0.866 -0.5 0.5 0.866 1.2875 23.3086)" fill="#0075D5" stroke="#FFFFFF" stroke-miterlimit="10" width="3.9669" height="7.9335"/>
			
				<rect x="29.0834" y="18.347" transform="matrix(0.5 -0.866 0.866 0.5 -3.7911 38.0612)" fill="#0075D5" stroke="#FFFFFF" stroke-miterlimit="10" width="3.9669" height="7.9335"/>
			
				<rect x="88.9424" y="20.3399" transform="matrix(0.8661 -0.4999 0.4999 0.8661 1.2824 49.4342)" fill="#0075D5" stroke="#FFFFFF" stroke-miterlimit="10" width="7.9341" height="3.967"/>
			
				<rect x="75.8708" y="7.2742" transform="matrix(0.4999 -0.8661 0.8661 0.4999 31.9095 73.7764)" fill="#0075D5" stroke="#FFFFFF" stroke-miterlimit="10" width="7.9341" height="3.967"/>
		</g>
	</g>
</g>
</svg>
