<?xml version="1.0" encoding="utf-8"?>
<!-- Generator: Adobe Illustrator 22.1.0, SVG Export Plug-In . SVG Version: 6.00 Build 0)  -->
<svg version="1.1" id="Layer_1" xmlns="http://www.w3.org/2000/svg" xmlns:xlink="http://www.w3.org/1999/xlink" x="0px" y="0px"
	 viewBox="0 0 150 150" enable-background="new 0 0 150 150" xml:space="preserve">
<g>
	<g>
		<g>
			
				<rect x="88.4516" y="48.0968" fill="#FFFFFF" stroke="#0075D5" stroke-width="1.8065" stroke-miterlimit="10" width="4.129" height="4.129"/>
			
				<rect x="55.4194" y="48.0968" fill="#FFFFFF" stroke="#0075D5" stroke-width="1.8065" stroke-miterlimit="10" width="4.129" height="4.129"/>
			<path fill="#FFFFFF" stroke="#0075D5" stroke-width="1.8065" stroke-miterlimit="10" d="M127.6341,21.4707
				C124.7314,16.2888,119.1985,13,113.2258,13c-6.4227,0-12.0857,3.7203-14.8005,9.216C91.6496,16.264,83.1004,13,74,13
				c-18.3969,0-33.9923,13.7001-36.6865,31.647c-1.4782-0.4356-3.0225-0.6792-4.6039-0.6792
				c-7.8493,0-14.5714,5.5515-16.1528,13.1179C12.6343,58.6155,10,62.3812,10,66.6774C10,72.3693,14.6307,77,20.3226,77h24.7742
				c1.0013,0,1.9716-0.1321,2.9068-0.3592c0.4067,0.4005,0.8052,0.8134,1.2222,1.1892v1.2346h-4.129v4.129h4.129v4.129h-4.129v4.129
				h4.129v8.2581h4.129v12.3871h-8.2581v4.129h3.2743l-3.0245,3.0245c-1.4926,1.4926-2.3143,3.4767-2.3143,5.5886
				c0,3.8379,2.7541,7.04,6.3876,7.7502C50.32,137.3685,54.511,141,59.5484,141h28.9032c5.0374,0,9.2284-3.6315,10.1285-8.4108
				c3.6335-0.7102,6.3876-3.9123,6.3876-7.7502c0-2.1099-0.8217-4.096-2.3143-5.5886l-3.0245-3.0245h3.2743v-4.129h-8.2581V99.7097
				h4.129v-8.2581h4.129v-4.129h-4.129v-4.129h4.129v-4.129h-4.129V77.83c7.8844-7.0606,12.3871-17.088,12.3871-27.6686
				c0-1.344-0.1135-2.721-0.2787-4.129h14.7303c6.8315,0,12.3871-5.5556,12.3871-12.3871
				C138,27.5796,133.5365,22.4431,127.6341,21.4707z M45.0968,72.871H20.3226c-3.4147,0-6.1935-2.7788-6.1935-6.1935
				c0-2.8573,1.9489-5.3223,4.7401-5.9974l1.3853-0.3345l0.1775-1.4163c0.7742-6.175,6.0511-10.8325,12.2777-10.8325
				c4.7732,0,9.1706,2.8015,11.2083,7.1391l0.5182,1.1004l1.2119,0.0826c4.321,0.2911,7.7068,3.8895,7.7068,8.1941
				C53.3548,69.1672,49.6511,72.871,45.0968,72.871z M51.6454,128.6129h-0.7102c-2.081,0-3.7739-1.6929-3.7739-3.7739
				c0-0.993,0.4026-1.9675,1.1045-2.6694l3.0245-3.0245l3.0245,3.0245c0.7019,0.7019,1.1045,1.6743,1.1045,2.6694
				C55.4194,126.92,53.7265,128.6129,51.6454,128.6129z M88.4516,136.871H59.5484c-2.7933,0-5.1344-1.8705-5.9024-4.4181
				c3.3858-0.8919,5.9024-3.9536,5.9024-7.6139c0-2.1099-0.8217-4.096-2.3143-5.5886l-3.0245-3.0245h39.5809l-3.0245,3.0245
				c-1.4926,1.4926-2.3143,3.4767-2.3143,5.5886c0,3.6625,2.5166,6.7221,5.9025,7.6139
				C93.5861,135.0005,91.2449,136.871,88.4516,136.871z M57.4839,112.0968V99.7097h33.0323v12.3871H57.4839z M96.7097,119.145
				l3.0245,3.0245c0.7019,0.7019,1.1045,1.6743,1.1045,2.6694c0,2.081-1.6929,3.7739-3.7739,3.7739h-0.7102
				c-2.081,0-3.7739-1.6929-3.7739-3.7739c0-0.993,0.4026-1.9675,1.1045-2.6694L96.7097,119.145z M94.6452,95.5806H53.3548v-4.129
				h41.2903v4.129H94.6452z M94.6452,87.3226H53.3548v-4.129h41.2903v4.129H94.6452z M95.3739,75.3215l-0.7288,0.6173v3.1257
				H76.0645V60.2754c4.705-0.96,8.2581-5.1283,8.2581-10.1141c0-5.6919-4.6307-10.3226-10.3226-10.3226
				s-10.3226,4.6307-10.3226,10.3226c0,4.9837,3.553,9.1541,8.2581,10.1141v18.7892H53.3548v-3.1277l-0.7288-0.6194
				c-0.1796-0.1528-0.3468-0.3406-0.5265-0.4996c3.2495-2.2338,5.3843-5.9726,5.3843-10.2049
				c0-6.0655-4.4635-11.2021-10.3659-12.1744c-1.4142-2.5228-3.4581-4.5853-5.8653-6.049C43.1437,29.8857,57.263,17.129,74,17.129
				c8.5554,0,16.5574,3.2599,22.7303,9.1541c-3.7244,1.6124-6.2142,5.2604-6.2142,9.4266c0,5.6919,4.6307,10.3226,10.3226,10.3226
				h5.8818c0.1858,1.4204,0.3117,2.7995,0.3117,4.129C107.0323,59.848,102.7814,69.0206,95.3739,75.3215z M74,56.3548
				c-3.4147,0-6.1936-2.7788-6.1936-6.1936c0-3.4147,2.7788-6.1935,6.1936-6.1935s6.1936,2.7788,6.1936,6.1935
				C80.1936,53.576,77.4147,56.3548,74,56.3548z M125.6129,41.9032h-24.7742c-3.4147,0-6.1935-2.7788-6.1935-6.1935
				c0-2.8573,1.9489-5.3223,4.7401-5.9974l1.3853-0.3345l0.1776-1.4163c0.7742-6.175,6.0511-10.8325,12.2777-10.8325
				c4.7732,0,9.1706,2.8015,11.2083,7.1391l0.5182,1.1004l1.2119,0.0826c4.321,0.2911,7.7068,3.8895,7.7068,8.1941
				C133.871,38.1995,130.1672,41.9032,125.6129,41.9032z"/>
		</g>
	</g>
</g>
</svg>
