<?xml version="1.0" encoding="utf-8"?>
<!-- Generator: Adobe Illustrator 22.1.0, SVG Export Plug-In . SVG Version: 6.00 Build 0)  -->
<svg version="1.1" id="logo-light" xmlns="http://www.w3.org/2000/svg" xmlns:xlink="http://www.w3.org/1999/xlink" x="0px" y="0px"
	 viewBox="0 0 271.7246 56.8081" enable-background="new 0 0 271.7246 56.8081" xml:space="preserve">
<g>
	<path fill="#FFFFFF" d="M20.7358,16.3447v8.2793h-6.3359v31.6079H4.3198V24.624H0v-8.2793h4.3198v-2.2324
		c0-4.7988,1.2715-8.3037,3.8159-10.5117c2.5439-2.207,6.5522-3.3125,12.0244-3.3125v8.4961c-2.1128,0-3.6001,0.4082-4.4644,1.2246
		c-0.8638,0.8164-1.2959,2.1846-1.2959,4.1035v2.2324H20.7358z"/>
	<path fill="#FFFFFF" d="M30.8159,51.1196c-3.8882-3.791-5.832-8.7588-5.832-14.9033c0-6.1436,1.9678-11.0874,5.9038-14.8315
		c3.9355-3.7441,8.8203-5.6162,14.6523-5.6162c5.8315,0,10.7153,1.8721,14.6519,5.6162c3.9351,3.7441,5.9038,8.688,5.9038,14.8315
		c0,6.1445-1.98,11.1123-5.9399,14.9033c-3.96,3.793-8.8682,5.6885-14.7241,5.6885C39.5752,56.8081,34.7036,54.9126,30.8159,51.1196
		z M45.4316,48.2397c2.832,0,5.2676-1.0439,7.3081-3.1318c2.0396-2.0879,3.0601-5.04,3.0601-8.8564
		c0-3.8154-1.0078-6.7544-3.0239-8.8188c-2.0161-2.0635-4.4526-3.0967-7.3081-3.0967c-2.8564,0-5.2686,1.0332-7.2358,3.0967
		c-1.9688,2.0645-2.9521,5.0161-2.9521,8.855c0,3.8408,0.9834,6.793,2.9521,8.8564C40.1992,47.2085,42.5991,48.2397,45.4316,48.2397
		z"/>
	<path fill="#FFFFFF" d="M105.9116,16.3447l-12.96,19.5112l12.8877,20.376h-11.376l-7.6318-12.0244l-7.3442,12.0244H69.2632
		l12.8882-19.4404L69.2632,16.3447h11.376l7.6318,12.0957l7.3447-12.0957H105.9116z"/>
	<path fill="#FFFFFF" d="M128.5908,56.8081c-5.8091,0-10.5376-1.8838-14.1841-5.6523c-3.6484-3.7676-5.4727-8.748-5.4727-14.9395
		c0-6.1924,1.8359-11.1479,5.5078-14.8677c3.6729-3.7197,8.4248-5.5801,14.2573-5.5801c5.832,0,10.6191,1.8125,14.3633,5.4355
		c3.7441,3.625,5.6162,8.46,5.6162,14.5083c0,1.3926-0.0967,2.6885-0.2881,3.8877h-29.0884
		c0.2393,2.5918,1.1992,4.6797,2.8799,6.2637c1.6797,1.584,3.8164,2.376,6.4087,2.376c3.5029,0,6.0947-1.4395,7.7764-4.3193h10.9434
		c-1.1514,3.792-3.3838,6.8877-6.6953,9.2871C137.3027,55.6089,133.2939,56.8081,128.5908,56.8081z M135.251,26.7129
		c-1.7998-1.584-3.9727-2.377-6.5166-2.377s-4.6685,0.793-6.3726,2.377s-2.7246,3.6958-3.0596,6.3354h18.8647
		C138.0225,30.4087,137.0508,28.2969,135.251,26.7129z"/>
	<path fill="#FFFFFF" d="M166.8223,22.5361c2.832-4.5107,6.9844-6.7676,12.4561-6.7676c5.4727,0,9.9834,1.9082,13.5361,5.7236
		c3.5518,3.8164,5.3281,8.7368,5.3281,14.7593c0,6.0244-1.7764,10.957-5.3281,14.7969c-3.5527,3.8408-8.0283,5.7598-13.4277,5.7598
		c-5.4004,0-9.5889-2.4238-12.5645-7.2725v6.6963h-10.1514V2.9521h10.1514V22.5361z M184.7148,44.856
		c2.0879-2.1113,3.1318-4.9912,3.1318-8.6396c0-3.6475-1.0439-6.5034-3.1318-8.5679c-2.0879-2.0635-4.5488-3.0957-7.3799-3.0957
		c-2.833,0-5.292,1.0439-7.3809,3.1318c-2.0879,2.0879-3.1318,4.9565-3.1318,8.603c0,3.6484,1.0439,6.5166,3.1318,8.6045
		c2.0889,2.0879,4.5479,3.1318,7.3809,3.1318C180.166,48.0239,182.627,46.9683,184.7148,44.856z"/>
	<path fill="#FFFFFF" d="M217.3662,6.1924c0,1.7285-0.6006,3.1924-1.7998,4.3916c-1.2002,1.2012-2.6523,1.8008-4.3564,1.8008
		s-3.1562-0.5996-4.3555-1.8008c-1.2002-1.1992-1.7998-2.6631-1.7998-4.3916c0-1.7275,0.5996-3.1914,1.7998-4.3916
		C208.0537,0.6016,209.5059,0,211.21,0s3.1562,0.6016,4.3564,1.8008C216.7656,3.001,217.3662,4.4648,217.3662,6.1924z
		 M206.1348,56.2319V16.3447h10.1514v39.8872H206.1348z"/>
	<path fill="#FFFFFF" d="M253.6523,16.3447v8.2793L236.877,47.8804h16.7754v8.3516h-28.584v-8.3516L241.917,24.624h-16.8486v-8.2793
		H253.6523z"/>
	<path fill="#FFFFFF" d="M271.7246,50.4722c0,1.6318-0.5654,3-1.6924,4.1035c-1.1279,1.1055-2.4961,1.6562-4.1035,1.6562
		c-1.6094,0-2.9648-0.5508-4.0684-1.6562c-1.1045-1.1035-1.6562-2.4717-1.6562-4.1035s0.5518-2.999,1.6562-4.1045
		c1.1035-1.1035,2.459-1.6553,4.0684-1.6553c1.6074,0,2.9756,0.5518,4.1035,1.6553
		C271.1592,47.4731,271.7246,48.8403,271.7246,50.4722z"/>
</g>
</svg>
