<?xml version="1.0" encoding="utf-8"?>
<!-- Generator: Adobe Illustrator 22.1.0, SVG Export Plug-In . SVG Version: 6.00 Build 0)  -->
<svg version="1.1" id="pattern" xmlns="http://www.w3.org/2000/svg" xmlns:xlink="http://www.w3.org/1999/xlink" x="0px" y="0px"
	 viewBox="0 0 1124.912 610.35" enable-background="new 0 0 1124.912 610.35" xml:space="preserve">
<title>outer space</title>
<g opacity="0.15">
	<g>
		<g opacity="0.7">
			
				<linearGradient id="SVGID_1_" gradientUnits="userSpaceOnUse" x1="297.8886" y1="790.3334" x2="297.8886" y2="762.7334" gradientTransform="matrix(1 0 0 1 0 -221.8634)">
				<stop  offset="0" style="stop-color:#808080;stop-opacity:0.25"/>
				<stop  offset="0.54" style="stop-color:#808080;stop-opacity:0.12"/>
				<stop  offset="1" style="stop-color:#808080;stop-opacity:0.1"/>
			</linearGradient>
			<circle fill="url(#SVGID_1_)" cx="297.8886" cy="554.67" r="13.8"/>
		</g>
		<circle fill="#FFFFFF" cx="297.8886" cy="554.67" r="13.18"/>
		<circle fill="#FFFFFF" cx="223.5387" cy="285.5" r="5.1"/>
		<circle fill="#FFFFFF" cx="587.5386" cy="581.5" r="5.1"/>
		<circle fill="#FFFFFF" cx="372.5386" cy="607.5" r="2.85"/>
		<circle fill="#FFFFFF" cx="1003.5386" cy="469.5" r="2.85"/>
		<circle fill="#FFFFFF" cx="840.5386" cy="213.5" r="2.85"/>
		<circle fill="#FFFFFF" cx="1071.5387" cy="338.5" r="2.85"/>
		<circle fill="#FFFFFF" cx="313.5386" cy="118.5" r="5.1"/>
		<polygon fill="#FFFFFF" points="173.3687,463.57 168.8286,463.57 168.8286,459.03 166.9787,459.03 166.9787,463.57 
			162.4387,463.57 162.4387,465.42 166.9787,465.42 166.9787,469.95 168.8286,469.95 168.8286,465.42 173.3687,465.42 		"/>
		<polygon fill="#FFFFFF" points="287.3687,461.57 282.8286,461.57 282.8286,457.03 280.9786,457.03 280.9786,461.57 
			276.4387,461.57 276.4387,463.42 280.9786,463.42 280.9786,467.95 282.8286,467.95 282.8286,463.42 287.3687,463.42 		"/>
		<polygon fill="#FFFFFF" points="450.3687,553.57 445.8286,553.57 445.8286,549.03 443.9786,549.03 443.9786,553.57 
			439.4387,553.57 439.4387,555.42 443.9786,555.42 443.9786,559.95 445.8286,559.95 445.8286,555.42 450.3687,555.42 		"/>
		<polygon fill="#FFFFFF" points="677.3986,2.07 675.3287,2.07 675.3287,0 674.4885,0 674.4885,2.07 672.4185,2.07 672.4185,2.91 
			674.4885,2.91 674.4885,4.98 675.3287,4.98 675.3287,2.91 677.3986,2.91 		"/>
		<polygon fill="#FFFFFF" points="972.3986,192.07 970.3287,192.07 970.3287,190 969.4885,190 969.4885,192.07 967.4185,192.07 
			967.4185,192.91 969.4885,192.91 969.4885,194.98 970.3287,194.98 970.3287,192.91 972.3986,192.91 		"/>
		<polygon fill="#FFFFFF" points="798.3986,316.07 796.3287,316.07 796.3287,314 795.4885,314 795.4885,316.07 793.4185,316.07 
			793.4185,316.91 795.4885,316.91 795.4885,318.98 796.3287,318.98 796.3287,316.91 798.3986,316.91 		"/>
		<polygon fill="#FFFFFF" points="90.3987,394.07 88.3287,394.07 88.3287,392 87.4887,392 87.4887,394.07 85.4187,394.07 
			85.4187,394.91 87.4887,394.91 87.4887,396.98 88.3287,396.98 88.3287,394.91 90.3987,394.91 		"/>
		<polygon fill="#FFFFFF" points="175.3987,564.07 173.3286,564.07 173.3286,562 172.4887,562 172.4887,564.07 170.4187,564.07 
			170.4187,564.91 172.4887,564.91 172.4887,566.98 173.3286,566.98 173.3286,564.91 175.3987,564.91 		"/>
		<polygon fill="#FFFFFF" points="442.3987,27.07 440.3286,27.07 440.3286,25 439.4886,25 439.4886,27.07 437.4186,27.07 
			437.4186,27.91 439.4886,27.91 439.4886,29.98 440.3286,29.98 440.3286,27.91 442.3987,27.91 		"/>
		<polygon fill="#FFFFFF" points="316.3987,326.07 314.3286,326.07 314.3286,324 313.4886,324 313.4886,326.07 311.4186,326.07 
			311.4186,326.91 313.4886,326.91 313.4886,328.98 314.3286,328.98 314.3286,326.91 316.3987,326.91 		"/>
		<polygon fill="#FFFFFF" points="343.3987,240.07 341.3286,240.07 341.3286,238 340.4886,238 340.4886,240.07 338.4186,240.07 
			338.4186,240.91 340.4886,240.91 340.4886,242.98 341.3286,242.98 341.3286,240.91 343.3987,240.91 		"/>
		<g opacity="0.7">
			
				<linearGradient id="SVGID_2_" gradientUnits="userSpaceOnUse" x1="768.5787" y1="660.3934" x2="768.5787" y2="637.3534" gradientTransform="matrix(1 0 0 1 0 -221.8634)">
				<stop  offset="0" style="stop-color:#808080;stop-opacity:0.25"/>
				<stop  offset="0.54" style="stop-color:#808080;stop-opacity:0.12"/>
				<stop  offset="1" style="stop-color:#808080;stop-opacity:0.1"/>
			</linearGradient>
			<circle fill="url(#SVGID_2_)" cx="768.5787" cy="427.01" r="11.52"/>
		</g>
		<circle fill="#FFFFFF" cx="768.5787" cy="427.01" r="10.67"/>
		<circle fill="#FFFFFF" cx="797.3085" cy="502.12" r="11.93"/>
	</g>
	<path fill="#FFFFFF" d="M502.3336,455.1418c-1.694-0.7609-2.5526-2.6671-2-4.44c0.0428-0.133,0.0696-0.2707,0.08-0.41l0,0
		c0.0654-1.0141-0.7037-1.8892-1.7178-1.9546c-0.6208-0.04-1.2198,0.2363-1.5922,0.7346l0,0c-0.0804,0.1118-0.1476,0.2326-0.2,0.36
		c-0.7609,1.694-2.6671,2.5526-4.44,2c-0.133-0.0428-0.2707-0.0696-0.41-0.08l0,0c-1.0141-0.0654-1.8892,0.7037-1.9546,1.7178
		c-0.04,0.6208,0.2363,1.2198,0.7346,1.5922l0,0c0.1118,0.0804,0.2326,0.1476,0.36,0.2c1.694,0.7609,2.5526,2.6672,2,4.44
		c-0.0428,0.133-0.0696,0.2707-0.08,0.41l0,0c-0.0884,1.0124,0.6605,1.9047,1.6729,1.9932
		c0.6485,0.0566,1.2787-0.2336,1.6572-0.7632l0,0c0.0804-0.1118,0.1476-0.2326,0.2-0.36c0.7609-1.694,2.6671-2.5526,4.44-2
		c0.133,0.0428,0.2706,0.0696,0.41,0.08l0,0c1.0141,0.0654,1.8892-0.7036,1.9547-1.7177c0.04-0.6208-0.2363-1.2198-0.7346-1.5923
		l0,0C502.5961,455.2665,502.4683,455.196,502.3336,455.1418z"/>
	<path fill="#FFFFFF" d="M689.637,151.0695c-1.694-0.7609-2.5527-2.6671-2-4.44c0.0427-0.133,0.0696-0.2707,0.08-0.41l0,0
		c0.0654-1.0141-0.7036-1.8892-1.7177-1.9546c-0.6208-0.04-1.2198,0.2363-1.5923,0.7346l0,0c-0.0804,0.1118-0.1475,0.2326-0.2,0.36
		c-0.7609,1.694-2.6672,2.5526-4.44,2c-0.1331-0.0428-0.2707-0.0696-0.41-0.08l0,0c-1.0141-0.0654-1.8892,0.7037-1.9546,1.7178
		c-0.04,0.6208,0.2363,1.2198,0.7346,1.5922l0,0c0.1118,0.0804,0.2326,0.1476,0.36,0.2c1.694,0.7609,2.5526,2.6671,2,4.44
		c-0.0428,0.133-0.0696,0.2707-0.08,0.41l0,0c-0.0884,1.0124,0.6606,1.9047,1.6729,1.9931
		c0.6485,0.0566,1.2786-0.2336,1.6571-0.7632l0,0c0.0804-0.1118,0.1476-0.2326,0.2-0.36c0.7609-1.694,2.6671-2.5526,4.44-2
		c0.133,0.0428,0.2706,0.0696,0.41,0.08l0,0c1.0141,0.0654,1.8892-0.7037,1.9546-1.7178c0.04-0.6208-0.2363-1.2198-0.7346-1.5922
		l0,0C689.8995,151.1942,689.7717,151.1236,689.637,151.0695z"/>
	<path fill="#FFFFFF" d="M940.0435,411.6742c-1.694-0.7609-2.5527-2.6672-2-4.44c0.0428-0.133,0.0696-0.2707,0.08-0.41l0,0
		c0.0654-1.0141-0.7037-1.8892-1.7178-1.9546c-0.6208-0.04-1.2198,0.2363-1.5922,0.7346l0,0c-0.0804,0.1118-0.1476,0.2326-0.2,0.36
		c-0.7609,1.694-2.6672,2.5526-4.44,2c-0.133-0.0428-0.2706-0.0696-0.41-0.08l0,0c-1.0141-0.0654-1.8892,0.7037-1.9546,1.7178
		c-0.04,0.6208,0.2363,1.2198,0.7346,1.5922l0,0c0.1118,0.0804,0.2326,0.1476,0.36,0.2c1.694,0.7609,2.5527,2.6672,2,4.44
		c-0.0428,0.133-0.0696,0.2707-0.08,0.41l0,0c-0.0884,1.0124,0.6606,1.9047,1.673,1.9931c0.6484,0.0566,1.2785-0.2336,1.657-0.7631
		l0,0c0.0804-0.1118,0.1476-0.2326,0.2-0.36c0.7609-1.694,2.6672-2.5526,4.44-2c0.133,0.0428,0.2706,0.0696,0.41,0.08l0,0
		c1.0141,0.0654,1.8892-0.7037,1.9546-1.7178c0.04-0.6208-0.2363-1.2198-0.7346-1.5922l0,0
		C940.306,411.7988,940.1782,411.7283,940.0435,411.6742z"/>
	<path fill="#FFFFFF" d="M1123.7937,461.8311c-1.694-0.7609-2.5527-2.6672-2-4.44c0.0427-0.133,0.0696-0.2706,0.08-0.41l0,0
		c0.0654-1.0141-0.7036-1.8892-1.7178-1.9546c-0.6207-0.04-1.2197,0.2363-1.5922,0.7346l0,0
		c-0.0804,0.1118-0.1476,0.2326-0.2001,0.36c-0.7609,1.694-2.6671,2.5527-4.4399,2c-0.1331-0.0428-0.2706-0.0696-0.41-0.08l0,0
		c-1.014-0.0654-1.8892,0.7037-1.9546,1.7178c-0.04,0.6208,0.2363,1.2198,0.7346,1.5922l0,0c0.1118,0.0804,0.2327,0.1476,0.36,0.2
		c1.694,0.7609,2.5527,2.6672,2,4.44c-0.0427,0.133-0.0696,0.2706-0.08,0.41l0,0c-0.0884,1.0123,0.6606,1.9047,1.673,1.993
		c0.6484,0.0566,1.2784-0.2335,1.657-0.7631l0,0c0.0804-0.1118,0.1476-0.2326,0.2-0.36c0.7609-1.694,2.6672-2.5527,4.4401-2
		c0.1329,0.0428,0.2706,0.0696,0.4099,0.08l0,0c1.0142,0.0654,1.8893-0.7037,1.9546-1.7178c0.04-0.6208-0.2363-1.2198-0.7346-1.5922
		l0,0C1124.056,461.9558,1123.9285,461.8852,1123.7937,461.8311z"/>
	<path fill="#FFFFFF" d="M35.0827,237.4792c-1.694-0.7609-2.5526-2.6671-2-4.44c0.0428-0.133,0.0696-0.2707,0.08-0.41l0,0
		c0.0654-1.0141-0.7037-1.8892-1.7178-1.9546c-0.6208-0.04-1.2198,0.2363-1.5922,0.7346l0,0c-0.0804,0.1118-0.1476,0.2326-0.2,0.36
		c-0.7609,1.694-2.6672,2.5526-4.44,2c-0.133-0.0428-0.2707-0.0696-0.41-0.08l0,0c-1.0141-0.0654-1.8892,0.7037-1.9546,1.7178
		c-0.04,0.6208,0.2363,1.2198,0.7346,1.5922l0,0c0.1118,0.0804,0.2326,0.1476,0.36,0.2c1.694,0.7609,2.5526,2.6671,2,4.44
		c-0.0428,0.133-0.0696,0.2707-0.08,0.41l0,0c-0.0884,1.0124,0.6606,1.9047,1.6729,1.9931
		c0.6485,0.0566,1.2786-0.2336,1.6571-0.7632l0,0c0.0804-0.1118,0.1476-0.2326,0.2-0.36c0.7609-1.694,2.6672-2.5526,4.44-2
		c0.133,0.0428,0.2707,0.0696,0.41,0.08l0,0c1.0141,0.0654,1.8892-0.7037,1.9546-1.7178c0.04-0.6208-0.2363-1.2198-0.7346-1.5922
		l0,0C35.3452,237.6039,35.2175,237.5333,35.0827,237.4792z"/>
	<path fill="none" stroke="#FFFFFF" stroke-width="1.362" stroke-miterlimit="10" stroke-dasharray="8.1723" d="M260.5515,51.0444
		c0,0,21.2717,72.5419-46.8387,76.9846c-68.1104,4.4427-76.391-17.2771-141.6016,32.3542"/>
	<path fill="none" stroke="#FFFFFF" stroke-width="0.6413" stroke-miterlimit="10" stroke-dasharray="3.8478" d="M88.9182,513.4622
		c0,0,10.0154,34.1552-22.0532,36.2469c-32.0687,2.0917-35.9675-8.1346-66.6708,15.2334"/>
	<path fill="none" stroke="#FFFFFF" stroke-width="1.495" stroke-miterlimit="10" stroke-dasharray="8.9702" d="M918.1063,539.2023
		c0,0-23.592,8.6515-22.1409,26.6888c1.4511,18.0371-26.7585,22.8159-26.7585,22.8159"/>
	<path fill="none" stroke="#FFFFFF" stroke-width="1.2903" stroke-miterlimit="10" stroke-dasharray="7.7419" d="M878.7589,118.5717
		c0,0-20.3615,7.4668-19.109,23.0342c1.2524,15.5674-23.0945,19.6918-23.0945,19.6918"/>
	<path fill="#FFFFFF" d="M404.5876,180.0246h15.4018c0.6313,0,1.1431,0.5118,1.1431,1.1431v4.3468
		c0,0.6313-0.5118,1.1431-1.1431,1.1431h-15.4018c-0.6313,0-1.1431-0.5118-1.1431-1.1431v-4.3468
		C403.4445,180.5364,403.9564,180.0246,404.5876,180.0246z"/>
	<path fill="#FFFFFF" d="M391.1006,187.3209h15.4019c0.6313,0,1.1431,0.5118,1.1431,1.1431v4.3468
		c0,0.6313-0.5118,1.1431-1.1431,1.1431h-15.4019c-0.6313,0-1.1431-0.5118-1.1431-1.1431v-4.3468
		C389.9575,187.8327,390.4692,187.3209,391.1006,187.3209z"/>
	<path fill="#FFFFFF" d="M699.6387,355.925H717.61c0.7366,0,1.3338,0.5972,1.3338,1.3338v5.072
		c0,0.7366-0.5972,1.3338-1.3338,1.3338h-17.9713c-0.7366,0-1.3338-0.5971-1.3338-1.3338v-5.072
		C698.3049,356.5222,698.902,355.925,699.6387,355.925z"/>
	<path fill="#FFFFFF" d="M708.9263,364.4386h17.9713c0.7366,0,1.3338,0.5972,1.3338,1.3338v5.072
		c0,0.7366-0.5972,1.3338-1.3338,1.3338h-17.9713c-0.7366,0-1.3338-0.5972-1.3338-1.3338v-5.072
		C707.5925,365.0357,708.1896,364.4386,708.9263,364.4386z"/>
	<g>
		<path fill="#FFFFFF" d="M1039.3365,44.555h26.1033c1.0701,0,1.9374,0.8674,1.9374,1.9374v7.3671
			c0,1.07-0.8673,1.9374-1.9374,1.9374h-26.1033c-1.0699,0-1.9373-0.8674-1.9373-1.9374v-7.3671
			C1037.3993,45.4224,1038.2666,44.555,1039.3365,44.555z"/>
		<path fill="#FFFFFF" d="M1052.8267,56.9209h26.1034c1.0698,0,1.9373,0.8674,1.9373,1.9374v7.3671
			c0,1.07-0.8674,1.9374-1.9373,1.9374h-26.1034c-1.0699,0-1.9374-0.8674-1.9374-1.9374v-7.3671
			C1050.8893,57.7883,1051.7567,56.9209,1052.8267,56.9209z"/>
	</g>
</g>
<g opacity="0.05">
	<g>
		<path fill="none" stroke="#FFFFFF" stroke-width="1.4611" stroke-miterlimit="10" d="M615.9612,136.4796
			c0.6429,0.3482,1.2822,0.7026,1.9178,1.063"/>
		<path fill="none" stroke="#FFFFFF" stroke-width="1.4611" stroke-miterlimit="10" stroke-dasharray="4.3286,4.3286" d="
			M621.6122,139.7161c38.618,23.4989,64.4109,65.978,64.4109,114.4807c0.0081,11.2662-1.4033,22.4885-4.2008,33.4018"/>
		<path fill="none" stroke="#FFFFFF" stroke-width="1.4611" stroke-miterlimit="10" d="M681.2744,289.6917
			c-0.1924,0.7038-0.3908,1.4063-0.5954,2.1077"/>
	</g>
	
		<path fill="none" stroke="#FFFFFF" stroke-width="1.4611" stroke-miterlimit="10" stroke-dasharray="4.3834" enable-background="new    " d="
		M615.9612,371.9176c-19.5863,10.6366-41.5273,16.1916-63.8155,16.1566c-43.6627,0-82.4451-20.9017-106.8828-53.2478"/>
	<g>
		<path fill="none" stroke="#FFFFFF" stroke-width="1.4611" stroke-miterlimit="10" d="M638.7917,279.4454
			c-0.2046,0.7014-0.4177,1.4003-0.6393,2.0967"/>
		<path fill="none" stroke="#FFFFFF" stroke-width="1.4611" stroke-miterlimit="10" stroke-dasharray="4.3652,4.3652" d="
			M636.7314,285.6698c-12.785,34.3113-45.8252,58.7527-84.5857,58.7527c-49.8287,0-90.2257-40.397-90.2257-90.2257
			s40.397-90.2257,90.2257-90.2257c19.7748-0.0288,39.0066,6.4682,54.7126,18.4835"/>
		<path fill="none" stroke="#FFFFFF" stroke-width="1.4611" stroke-miterlimit="10" d="M608.5825,183.7915
			c0.5699,0.4578,1.1336,0.9217,1.6913,1.3917"/>
	</g>
	<g>
		<path fill="none" stroke="#FFFFFF" stroke-width="1.4611" stroke-miterlimit="10" d="M544.4821,203.6412
			c0.7306-0.1071,1.4612-0.1997,2.1917-0.2776"/>
		<path fill="none" stroke="#FFFFFF" stroke-width="1.4611" stroke-miterlimit="10" stroke-dasharray="4.2227,4.2227" d="
			M550.8672,203.075c0.4262,0,0.8524,0,1.2785,0c28.2439-0.0001,51.1401,22.896,51.1403,51.1399
			c0,8.7222-2.2308,17.2994-6.4803,24.9163"/>
		<path fill="none" stroke="#FFFFFF" stroke-width="1.4611" stroke-miterlimit="10" d="M595.739,280.9503
			c-0.3823,0.6234-0.778,1.2322-1.1871,1.8264"/>
	</g>
</g>
</svg>
