<?xml version="1.0" encoding="utf-8"?>
<!-- Generator: Adobe Illustrator 22.1.0, SVG Export Plug-In . SVG Version: 6.00 Build 0)  -->
<svg version="1.1" id="settings-icon" xmlns="http://www.w3.org/2000/svg" xmlns:xlink="http://www.w3.org/1999/xlink" x="0px"
	 y="0px" viewBox="0 0 123.976 123.976" enable-background="new 0 0 123.976 123.976" xml:space="preserve">
<g>
	<g>
		<g>
			<path fill="#0075D5" stroke="#FFFFFF" stroke-miterlimit="10" d="M30.2523,77.8559c-8.7491,0-15.8679,7.1187-15.8679,15.8679
				s7.1187,15.8679,15.8679,15.8679s15.8679-7.1187,15.8679-15.8679S39.0014,77.8559,30.2523,77.8559z M30.2523,105.6246
				c-6.5633,0-11.9009-5.3376-11.9009-11.9009c0-6.5633,5.3376-11.9009,11.9009-11.9009s11.9009,5.3376,11.9009,11.9009
				C42.1532,100.2871,36.8156,105.6246,30.2523,105.6246z"/>
			<path fill="#0075D5" stroke="#FFFFFF" stroke-miterlimit="10" d="M123.476,38.1862V22.3183h-5.2423
				c-0.4205-1.3051-0.9461-2.5726-1.567-3.7885l3.7051-3.7051L109.1513,3.6061l-3.7051,3.7051
				c-1.2159-0.6248-2.4833-1.1484-3.7885-1.5689V0.5H85.7898v5.2423c-1.3051,0.4225-2.5726,0.9461-3.7885,1.5689l-3.7051-3.7051
				l-4.8397,4.8397C37.7082,8.6799,8.6799,37.7082,8.4458,73.4545l-4.8417,4.8397l3.7051,3.7051
				c-0.6208,1.2179-1.1465,2.4853-1.567,3.7904H0.5v15.8679h5.2423c0.4205,1.3051,0.9461,2.5726,1.567,3.7885l-3.7051,3.7051
				l11.2206,11.2186l3.7051-3.7051c1.2159,0.6228,2.4833,1.1465,3.7885,1.5689v5.2423h15.8679v-5.2423
				c1.3051-0.4225,2.5726-0.9461,3.7885-1.5689l3.7051,3.7051l4.8397-4.8397c35.7463-0.234,64.7766-29.2623,65.0107-65.0107
				l4.8417-4.8397l-3.7051-3.7051c0.6208-1.2159,1.1465-2.4833,1.567-3.7885L123.476,38.1862L123.476,38.1862z M69.311,12.5893
				l-2.2354,2.2354l3.7052,3.7051c-0.6208,1.2159-1.1465,2.4833-1.567,3.7885h-5.2424v6.0516
				c-19.1942,1.0036-34.5959,16.4054-35.6016,35.6016h-6.0516v5.2424c-1.3051,0.4225-2.5726,0.9461-3.7885,1.5689l-3.7051-3.7051
				l-2.2354,2.2354C14.8287,39.051,39.051,14.8287,69.311,12.5893z M71.2826,49.8887L49.8868,71.2826l-4.207-4.207l-3.7051,3.7052
				c-1.2159-0.6228-2.4833-1.1465-3.7885-1.5689v-5.2404h-5.8493c0.9937-17.0084,14.6242-30.6389,31.6346-31.6346v5.8493h5.2424
				c0.4205,1.3051,0.9461,2.5726,1.567,3.7885l-3.7052,3.7051L71.2826,49.8887z M91.6391,60.0045
				c-0.9937,17.0084-14.6223,30.6389-31.6346,31.6346v-5.8493h-5.2423c-0.4205-1.3051-0.9461-2.5726-1.567-3.7885l3.7052-3.7051
				l-4.207-4.209l21.3958-21.3958l4.207,4.207l3.7051-3.7051c1.2159,0.6228,2.4833,1.1465,3.7885,1.5689v5.2423H91.6391z
				 M51.3545,99.1783c-0.5098,1.9775-1.2912,3.8638-2.3207,5.6073l-0.7835,1.325l3.0407,3.0407l-5.6113,5.6093l-3.0407-3.0387
				l-1.323,0.7815c-1.7455,1.0314-3.6318,1.8109-5.6093,2.3207l-1.4876,0.3848v4.3002h-7.9339v-4.3002l-1.4876-0.3848
				c-1.9775-0.5098-3.8638-1.2893-5.6093-2.3207l-1.323-0.7815l-3.0407,3.0387l-5.6113-5.6093l3.0407-3.0407l-0.7835-1.325
				c-1.0294-1.7435-1.8109-3.6298-2.3207-5.6073l-0.3828-1.4876H4.467v-7.9339h4.3002L9.15,88.2692
				c0.5098-1.9775,1.2912-3.8638,2.3207-5.6073l0.7835-1.325l-3.0407-3.0407l5.6113-5.6093l3.0407,3.0387l1.323-0.7815
				c1.7455-1.0314,3.6318-1.8109,5.6093-2.3207l1.4876-0.3848v-4.3002h7.9339v4.3002l1.4876,0.3848
				c1.9775,0.5098,3.8638,1.2893,5.6093,2.3207l1.323,0.7815l3.0407-3.0387l5.6113,5.6093l-3.0407,3.0407l0.7835,1.325
				c1.0294,1.7435,1.8109,3.6298,2.3207,5.6073l0.3828,1.4876h4.3002v7.9339h-4.3002L51.3545,99.1783z M54.665,111.3867
				l2.2354-2.2354l-3.7052-3.7051c0.6208-1.2159,1.1465-2.4833,1.567-3.7885h5.2423v-6.0516
				c19.1942-1.0036,34.5959-16.4054,35.6015-35.6016h6.0516v-5.2423c1.3051-0.4225,2.5726-0.9461,3.7885-1.5689l3.7051,3.7051
				l2.2354-2.2354C109.1473,84.925,84.925,109.1473,54.665,111.3867z M115.2088,34.2192l-0.3828,1.4876
				c-0.5098,1.9775-1.2913,3.8638-2.3207,5.6073l-0.7835,1.325l3.0407,3.0407l-5.6113,5.6093l-3.0407-3.0387l-1.323,0.7815
				c-1.7455,1.0314-3.6318,1.8109-5.6093,2.3207l-1.4876,0.3848v4.3002h-7.9339v-4.3002l-1.4876-0.3848
				c-1.9775-0.5098-3.8638-1.2893-5.6093-2.3207l-1.323-0.7815l-3.0407,3.0387l-5.6113-5.6093l3.0407-3.0407l-0.7835-1.325
				c-1.0294-1.7435-1.8109-3.6298-2.3207-5.6073l-0.3828-1.4876h-4.3002v-7.9339h4.3002l0.3828-1.4876
				c0.5098-1.9775,1.2912-3.8638,2.3207-5.6073l0.7835-1.325l-3.0407-3.0407l5.6113-5.6093l3.0407,3.0387l1.323-0.7815
				c1.7455-1.0314,3.6318-1.8109,5.6093-2.3207l1.4876-0.3848V4.467h7.9339v4.3002l1.4876,0.3848
				c1.9775,0.5098,3.8638,1.2893,5.6093,2.3207l1.323,0.7815l3.0407-3.0387l5.6113,5.6093l-3.0407,3.0407l0.7835,1.325
				c1.0294,1.7435,1.8109,3.6298,2.3207,5.6073l0.3828,1.4876h4.3002v7.9339H115.2088z"/>
			<path fill="#0075D5" stroke="#FFFFFF" stroke-miterlimit="10" d="M93.7237,14.3844c-8.7491,0-15.8679,7.1187-15.8679,15.8679
				s7.1187,15.8679,15.8679,15.8679s15.8679-7.1187,15.8679-15.8679S102.4729,14.3844,93.7237,14.3844z M93.7237,42.1532
				c-6.5633,0-11.9009-5.3376-11.9009-11.9009s5.3376-11.9009,11.9009-11.9009c6.5633,0,11.9009,5.3376,11.9009,11.9009
				S100.2871,42.1532,93.7237,42.1532z"/>
			
				<rect x="59.1833" y="71.9055" transform="matrix(0.7071 -0.7071 0.7071 0.7071 -34.0915 65.4737)" fill="#0075D5" stroke="#FFFFFF" stroke-miterlimit="10" width="5.6092" height="3.9669"/>
			
				<rect x="71.0823" y="60.0003" transform="matrix(0.7071 -0.7071 0.7071 0.7071 -22.1882 70.4006)" fill="#0075D5" stroke="#FFFFFF" stroke-miterlimit="10" width="5.6092" height="3.9669"/>
			
				<rect x="65.1318" y="65.9559" transform="matrix(0.7071 -0.7071 0.7071 0.7071 -28.1423 67.9373)" fill="#0075D5" stroke="#FFFFFF" stroke-miterlimit="10" width="5.6092" height="3.9669"/>
			
				<rect x="47.2861" y="60.0045" transform="matrix(0.7071 -0.7071 0.7071 0.7071 -29.1609 53.5753)" fill="#0075D5" stroke="#FFFFFF" stroke-miterlimit="10" width="5.6092" height="3.9669"/>
			
				<rect x="59.1871" y="48.0993" transform="matrix(0.7071 -0.7071 0.7071 0.7071 -17.2569 58.5037)" fill="#0075D5" stroke="#FFFFFF" stroke-miterlimit="10" width="5.6092" height="3.9669"/>
			
				<rect x="53.2366" y="54.0549" transform="matrix(0.7071 -0.7071 0.7071 0.7071 -23.211 56.0404)" fill="#0075D5" stroke="#FFFFFF" stroke-miterlimit="10" width="5.6092" height="3.9669"/>
		</g>
	</g>
</g>
</svg>
