<?xml version="1.0" encoding="utf-8"?>
<!-- Generator: Adobe Illustrator 22.1.0, SVG Export Plug-In . SVG Version: 6.00 Build 0)  -->
<svg version="1.1" id="startup-icon" xmlns="http://www.w3.org/2000/svg" xmlns:xlink="http://www.w3.org/1999/xlink" x="0px"
	 y="0px" viewBox="0 0 123.976 123.976" enable-background="new 0 0 123.976 123.976" xml:space="preserve">
<g>
	<g>
		<g>
			<path fill="#0075D5" stroke="#FFFFFF" stroke-miterlimit="10" d="M36.2027,59.5523v5.645L61.988,52.3046l25.7853,12.8926v-5.645
				L61.988,5.8336L36.2027,59.5523z M61.988,47.8696L41.2289,58.2491L61.988,15.0013l20.7591,43.2499L61.988,47.8696z"/>
			<rect x="60.0045" y="40.1697" fill="#0075D5" stroke="#FFFFFF" stroke-miterlimit="10" width="3.967" height="3.967"/>
			<rect x="60.0045" y="32.2357" fill="#0075D5" stroke="#FFFFFF" stroke-miterlimit="10" width="3.967" height="3.967"/>
			<rect x="60.0045" y="77.8559" fill="#0075D5" stroke="#FFFFFF" stroke-miterlimit="10" width="3.967" height="29.7523"/>
			<rect x="60.0045" y="58.021" fill="#0075D5" stroke="#FFFFFF" stroke-miterlimit="10" width="3.967" height="15.8679"/>
			<rect x="60.0045" y="119.509" fill="#0075D5" stroke="#FFFFFF" stroke-miterlimit="10" width="3.967" height="3.967"/>
			<rect x="60.0045" y="111.5751" fill="#0075D5" stroke="#FFFFFF" stroke-miterlimit="10" width="3.967" height="3.967"/>
			<rect x="67.9385" y="61.988" fill="#0075D5" stroke="#FFFFFF" stroke-miterlimit="10" width="3.967" height="41.6532"/>
			<rect x="67.9385" y="107.6081" fill="#0075D5" stroke="#FFFFFF" stroke-miterlimit="10" width="3.967" height="3.967"/>
			<rect x="67.9385" y="115.5421" fill="#0075D5" stroke="#FFFFFF" stroke-miterlimit="10" width="3.967" height="3.967"/>
			<rect x="52.0706" y="81.8228" fill="#0075D5" stroke="#FFFFFF" stroke-miterlimit="10" width="3.967" height="21.8183"/>
			<rect x="52.0706" y="61.988" fill="#0075D5" stroke="#FFFFFF" stroke-miterlimit="10" width="3.967" height="15.8679"/>
			<rect x="52.0706" y="107.6081" fill="#0075D5" stroke="#FFFFFF" stroke-miterlimit="10" width="3.967" height="3.967"/>
			<rect x="52.0706" y="115.5421" fill="#0075D5" stroke="#FFFFFF" stroke-miterlimit="10" width="3.967" height="3.967"/>
			<rect x="75.8724" y="91.7403" fill="#0075D5" stroke="#FFFFFF" stroke-miterlimit="10" width="3.967" height="15.8679"/>
			<rect x="75.8724" y="65.955" fill="#0075D5" stroke="#FFFFFF" stroke-miterlimit="10" width="3.967" height="21.8183"/>
			<rect x="75.8724" y="111.5751" fill="#0075D5" stroke="#FFFFFF" stroke-miterlimit="10" width="3.967" height="3.967"/>
			<rect x="44.1366" y="65.955" fill="#0075D5" stroke="#FFFFFF" stroke-miterlimit="10" width="3.967" height="41.6532"/>
			<rect x="44.1366" y="111.5751" fill="#0075D5" stroke="#FFFFFF" stroke-miterlimit="10" width="3.967" height="3.967"/>
			<rect x="83.8063" y="69.9219" fill="#0075D5" stroke="#FFFFFF" stroke-miterlimit="10" width="3.967" height="29.7523"/>
			<rect x="83.8063" y="103.6412" fill="#0075D5" stroke="#FFFFFF" stroke-miterlimit="10" width="3.967" height="3.967"/>
			<rect x="36.2027" y="69.9219" fill="#0075D5" stroke="#FFFFFF" stroke-miterlimit="10" width="3.967" height="29.7523"/>
			<rect x="36.2027" y="103.6412" fill="#0075D5" stroke="#FFFFFF" stroke-miterlimit="10" width="3.967" height="3.967"/>
			<path fill="#0075D5" stroke="#FFFFFF" stroke-miterlimit="10" d="M83.9769,43.3314l3.6218,1.6185
				c0.3094-0.6823,7.9042-16.6811,35.8773-16.6811v-3.967C92.7875,24.3018,84.324,42.5538,83.9769,43.3314z"/>
			<path fill="#0075D5" stroke="#FFFFFF" stroke-miterlimit="10" d="M36.3773,44.9499l3.6218-1.6185
				C39.652,42.5538,31.1885,24.3018,0.5,24.3018v3.967C28.4731,28.2688,36.0678,44.2676,36.3773,44.9499z"/>
			<path fill="#0075D5" stroke="#FFFFFF" stroke-miterlimit="10" d="M101.6577,4.467V0.5
				c-21.2451,0-25.7099,23.2127-25.7516,23.4468l3.9015,0.7081C79.8433,24.4545,83.6853,4.467,101.6577,4.467z"/>
			<path fill="#0075D5" stroke="#FFFFFF" stroke-miterlimit="10" d="M44.1704,24.6608l3.9015-0.7121
				C48.0282,23.7127,43.5634,0.5,22.3183,0.5v3.967C40.2292,4.467,44.0157,23.8357,44.1704,24.6608z"/>
			<rect x="10.4174" y="8.4339" fill="#0075D5" stroke="#FFFFFF" stroke-miterlimit="10" width="3.967" height="3.967"/>
			<rect x="10.4174" y="16.3679" fill="#0075D5" stroke="#FFFFFF" stroke-miterlimit="10" width="3.967" height="3.967"/>
			<rect x="6.4505" y="12.4009" fill="#0075D5" stroke="#FFFFFF" stroke-miterlimit="10" width="3.967" height="3.967"/>
			<rect x="14.3844" y="12.4009" fill="#0075D5" stroke="#FFFFFF" stroke-miterlimit="10" width="3.967" height="3.967"/>
			<rect x="99.6742" y="65.955" fill="#0075D5" stroke="#FFFFFF" stroke-miterlimit="10" width="3.967" height="3.967"/>
			<rect x="99.6742" y="73.8889" fill="#0075D5" stroke="#FFFFFF" stroke-miterlimit="10" width="3.967" height="3.967"/>
			<rect x="95.7072" y="69.9219" fill="#0075D5" stroke="#FFFFFF" stroke-miterlimit="10" width="3.967" height="3.967"/>
			<rect x="103.6412" y="69.9219" fill="#0075D5" stroke="#FFFFFF" stroke-miterlimit="10" width="3.967" height="3.967"/>
			<rect x="24.3018" y="77.8559" fill="#0075D5" stroke="#FFFFFF" stroke-miterlimit="10" width="3.967" height="3.967"/>
			<rect x="24.3018" y="85.7898" fill="#0075D5" stroke="#FFFFFF" stroke-miterlimit="10" width="3.967" height="3.967"/>
			<rect x="20.3348" y="81.8228" fill="#0075D5" stroke="#FFFFFF" stroke-miterlimit="10" width="3.967" height="3.967"/>
			<rect x="28.2688" y="81.8228" fill="#0075D5" stroke="#FFFFFF" stroke-miterlimit="10" width="3.967" height="3.967"/>
			<rect x="87.7733" y="18.3514" fill="#0075D5" stroke="#FFFFFF" stroke-miterlimit="10" width="3.967" height="3.967"/>
			<rect x="87.7733" y="26.2853" fill="#0075D5" stroke="#FFFFFF" stroke-miterlimit="10" width="3.967" height="3.967"/>
			<rect x="83.8063" y="22.3183" fill="#0075D5" stroke="#FFFFFF" stroke-miterlimit="10" width="3.967" height="3.967"/>
			<rect x="91.7403" y="22.3183" fill="#0075D5" stroke="#FFFFFF" stroke-miterlimit="10" width="3.967" height="3.967"/>
			<rect x="24.3018" y="48.1036" fill="#0075D5" stroke="#FFFFFF" stroke-miterlimit="10" width="3.967" height="3.967"/>
			<rect x="24.3018" y="56.0375" fill="#0075D5" stroke="#FFFFFF" stroke-miterlimit="10" width="3.967" height="3.967"/>
			<rect x="20.3348" y="52.0706" fill="#0075D5" stroke="#FFFFFF" stroke-miterlimit="10" width="3.967" height="3.967"/>
			<rect x="28.2688" y="52.0706" fill="#0075D5" stroke="#FFFFFF" stroke-miterlimit="10" width="3.967" height="3.967"/>
			<rect x="115.5421" y="34.2192" fill="#0075D5" stroke="#FFFFFF" stroke-miterlimit="10" width="3.967" height="3.967"/>
			<rect x="115.5421" y="42.1532" fill="#0075D5" stroke="#FFFFFF" stroke-miterlimit="10" width="3.967" height="3.967"/>
			<rect x="111.5751" y="38.1862" fill="#0075D5" stroke="#FFFFFF" stroke-miterlimit="10" width="3.967" height="3.967"/>
			<rect x="119.509" y="38.1862" fill="#0075D5" stroke="#FFFFFF" stroke-miterlimit="10" width="3.967" height="3.967"/>
		</g>
	</g>
</g>
</svg>
