<?xml version="1.0" encoding="utf-8"?>
<!-- Generator: Adobe Illustrator 22.1.0, SVG Export Plug-In . SVG Version: 6.00 Build 0)  -->
<svg version="1.1" id="strategy-icon" xmlns="http://www.w3.org/2000/svg" xmlns:xlink="http://www.w3.org/1999/xlink" x="0px"
	 y="0px" viewBox="0 0 126.74 126.74" enable-background="new 0 0 126.74 126.74" xml:space="preserve">
<g>
	<g>
		<g>
			<path fill="#FFFFFF" stroke="#0075D5" stroke-width="1.764" stroke-miterlimit="10" d="M113.7635,0.882H97.6376v20.1574H0.882
				V125.858h112.8815c6.6701,0,12.0945-5.4244,12.0945-12.0945V12.9765C125.858,6.3064,120.4336,0.882,113.7635,0.882z
				 M113.7635,121.8265H4.9135V25.0709h92.7241v80.6297h16.1259c4.4467,0,8.063,3.6162,8.063,8.063
				S118.2103,121.8265,113.7635,121.8265z M121.8265,104.7552c-2.1407-1.917-4.9688-3.0861-8.063-3.0861h-12.0945V4.9135h12.0945
				c4.4467,0,8.063,3.6162,8.063,8.063V104.7552z"/>
			<path fill="#FFFFFF" stroke="#0075D5" stroke-width="1.764" stroke-miterlimit="10" d="M67.4015,58.631v49.0853
				c0,5.5574,4.5213,10.0787,10.0787,10.0787s10.0787-4.5213,10.0787-10.0787V58.631L77.4802,46.0326L67.4015,58.631z M71.433,63.37
				h4.0315v30.2361H71.433V63.37z M83.5274,107.7163c0,3.334-2.7132,6.0472-6.0472,6.0472s-6.0472-2.7132-6.0472-6.0472v-2.0157
				h12.0945V107.7163z M83.5274,101.6691H71.433v-4.0315h12.0945V101.6691z M83.5274,93.6061h-4.0315V63.37h4.0315V93.6061z
				 M71.9974,59.3385l5.4828-6.8515l5.4828,6.8515H71.9974z"/>
			
				<rect x="69.4172" y="43.2126" fill="#FFFFFF" stroke="#0075D5" stroke-width="1.764" stroke-miterlimit="10" width="6.0472" height="4.0315"/>
			
				<rect x="75.4645" y="37.1654" fill="#FFFFFF" stroke="#0075D5" stroke-width="1.764" stroke-miterlimit="10" width="4.0315" height="6.0472"/>
			
				<rect x="79.4959" y="43.2126" fill="#FFFFFF" stroke="#0075D5" stroke-width="1.764" stroke-miterlimit="10" width="6.0472" height="4.0315"/>
			<path fill="#FFFFFF" stroke="#0075D5" stroke-width="1.764" stroke-miterlimit="10" d="M8.945,113.7635h4.0315
				c0-59.8877,50.4843-66.2897,52.633-66.5316l-0.4475-4.0053C64.5996,43.2872,8.945,50.2072,8.945,113.7635z"/>
			<path fill="#FFFFFF" stroke="#0075D5" stroke-width="1.764" stroke-miterlimit="10" d="M49.2598,69.4172
				c-5.5574,0-10.0787,4.5213-10.0787,10.0787c0,5.5574,4.5213,10.0787,10.0787,10.0787s10.0787-4.5213,10.0787-10.0787
				C59.3385,73.9385,54.8172,69.4172,49.2598,69.4172z M49.2598,85.5432c-3.334,0-6.0472-2.7132-6.0472-6.0472
				c0-3.334,2.7132-6.0472,6.0472-6.0472c3.334,0,6.0472,2.7132,6.0472,6.0472C55.307,82.83,52.5938,85.5432,49.2598,85.5432z"/>
			<path fill="#FFFFFF" stroke="#0075D5" stroke-width="1.764" stroke-miterlimit="10" d="M19.0237,49.2598
				c5.5574,0,10.0787-4.5213,10.0787-10.0787s-4.5213-10.0787-10.0787-10.0787S8.945,33.6237,8.945,39.1811
				S13.4663,49.2598,19.0237,49.2598z M19.0237,33.1339c3.334,0,6.0472,2.7132,6.0472,6.0472c0,3.334-2.7132,6.0472-6.0472,6.0472
				s-6.0472-2.7132-6.0472-6.0472C12.9765,35.8471,15.6896,33.1339,19.0237,33.1339z"/>
		</g>
	</g>
</g>
</svg>
