<?xml version="1.0" encoding="utf-8"?>
<!-- Generator: Adobe Illustrator 22.1.0, SVG Export Plug-In . SVG Version: 6.00 Build 0)  -->
<svg version="1.1" id="target-icon" xmlns="http://www.w3.org/2000/svg" xmlns:xlink="http://www.w3.org/1999/xlink" x="0px"
	 y="0px" viewBox="0 0 123.976 123.976" enable-background="new 0 0 123.976 123.976" xml:space="preserve">
<g>
	<g>
		<g>
			<path fill="#0075D5" stroke="#FFFFFF" stroke-miterlimit="10" d="M75.8724,0.5c-26.2474,0-47.6036,21.3562-47.6036,47.6036
				c0,6.0298,1.1246,11.891,3.3263,17.4566L0.5,78.5164v7.4718l41.318-3.9352l-5.9187,41.4231h7.5432l13.9955-31.4918
				c5.8414,2.4635,12.0298,3.723,18.4345,3.723c26.2474,0,47.6036-21.3562,47.6036-47.6036S102.1198,0.5,75.8724,0.5z
				 M40.8639,119.509h-0.3908l5.9842-41.8832L4.467,81.6245v-0.4641l65.5859-27.3265L40.8639,119.509z M68.2796,50.2755
				l-5.5299,2.3048c-0.4979-1.442-0.7617-2.9395-0.7617-4.4767c0-7.6562,6.2281-13.8844,13.8844-13.8844
				s13.8844,6.2281,13.8844,13.8844S83.5286,61.988,75.8724,61.988c-1.6324,0-3.2152-0.2896-4.7286-0.841l2.4397-5.4863
				c0.7299,0.2221,1.4876,0.3769,2.2889,0.3769c4.3756,0,7.9339-3.5584,7.9339-7.9339s-3.5584-7.9339-7.9339-7.9339
				c-4.3756,0-7.9339,3.5584-7.9339,7.9339C67.9385,48.8613,68.0793,49.5813,68.2796,50.2755z M71.9689,48.7383
				c-0.0337-0.2083-0.0635-0.4165-0.0635-0.6347c0-2.1878,1.7792-3.967,3.967-3.967c2.1878,0,3.967,1.7792,3.967,3.967
				c0,2.1878-1.7792,3.967-3.967,3.967c-0.2281,0-0.4483-0.0298-0.6645-0.0674l2.517-5.6628L71.9689,48.7383z M75.8724,65.955
				c9.842,0,17.8513-8.0093,17.8513-17.8514s-8.0093-17.8514-17.8513-17.8514S58.021,38.2616,58.021,48.1036
				c0,2.0668,0.355,4.08,1.0513,6.008l-5.4645,2.277c-1.0017-2.6678-1.5372-5.4427-1.5372-8.285
				c0-13.1247,10.6771-23.8018,23.8018-23.8018s23.8018,10.6771,23.8018,23.8018S88.9971,71.9054,75.8724,71.9054
				c-3.0149,0-5.9425-0.599-8.7452-1.7197l2.402-5.405C71.5524,65.5503,73.7104,65.955,75.8724,65.955z M75.8724,75.8724
				c15.3125,0,27.7688-12.4563,27.7688-27.7688S91.1849,20.3348,75.8724,20.3348S48.1036,32.7911,48.1036,48.1036
				c0,3.3699,0.6446,6.6546,1.8486,9.8083l-5.4843,2.285c-1.5055-3.8856-2.3147-7.9379-2.3147-12.0933
				c0-18.5932,15.126-33.7192,33.7192-33.7192s33.7192,15.126,33.7192,33.7192s-15.126,33.7192-33.7192,33.7192
				c-4.3974,0-8.6738-0.9065-12.7637-2.5984l2.4099-5.4209C68.831,75.1504,72.2981,75.8724,75.8724,75.8724z M75.8724,91.7403
				c-5.8433,0-11.4923-1.1425-16.8239-3.3799l2.4278-5.4645c4.6017,1.92,9.4354,2.8939,14.3961,2.8939
				c20.781,0,37.6862-16.9052,37.6862-37.6862S96.6534,10.4174,75.8724,10.4174S38.1862,27.3227,38.1862,48.1036
				c0,4.683,0.9164,9.247,2.6261,13.6166l-5.5557,2.3147c-2.0013-5.0797-3.0208-10.4292-3.0208-15.9313
				c0-24.0616,19.575-43.6366,43.6367-43.6366s43.6366,19.575,43.6366,43.6366S99.934,91.7403,75.8724,91.7403z"/>
			
				<rect x="31.4226" y="87.7707" transform="matrix(0.7071 -0.7071 0.7071 0.7071 -53.4409 50.4907)" fill="#0075D5" stroke="#FFFFFF" stroke-miterlimit="10" width="5.6092" height="3.9669"/>
			
				<rect x="23.489" y="95.7073" transform="matrix(0.7071 -0.7071 0.7071 0.7071 -61.3766 47.2053)" fill="#0075D5" stroke="#FFFFFF" stroke-miterlimit="10" width="5.6092" height="3.9669"/>
			
				<rect x="15.5549" y="103.6409" transform="matrix(0.7071 -0.7071 0.7071 0.7071 -69.3103 43.9188)" fill="#0075D5" stroke="#FFFFFF" stroke-miterlimit="10" width="5.6092" height="3.9669"/>
			
				<rect x="7.6209" y="111.5743" transform="matrix(0.7071 -0.7071 0.7071 0.7071 -77.2439 40.6323)" fill="#0075D5" stroke="#FFFFFF" stroke-miterlimit="10" width="5.6092" height="3.9669"/>
		</g>
	</g>
</g>
</svg>
