<?xml version="1.0" encoding="utf-8"?>
<!-- Generator: Adobe Illustrator 22.1.0, SVG Export Plug-In . SVG Version: 6.00 Build 0)  -->
<svg version="1.1" id="worldwide-icon" xmlns="http://www.w3.org/2000/svg" xmlns:xlink="http://www.w3.org/1999/xlink" x="0px"
	 y="0px" viewBox="0 0 123.976 123.976" enable-background="new 0 0 123.976 123.976" xml:space="preserve">
<g>
	<g>
		<g>
			<path fill="#0075D5" stroke="#FFFFFF" stroke-miterlimit="10" d="M123.476,32.2357C123.476,14.7374,109.2385,0.5,91.7403,0.5
				c-10.9468,0-20.6143,5.5716-26.3228,14.0272c-3.8261-0.2777-7.565-0.1091-11.167,0.476l-13.452-4.4847l-1.2555,3.7627
				l7.4777,2.4932C28.0665,23.0463,14.3844,40.9651,14.3844,61.988c0,1.1266,0.0555,2.277,0.1388,3.4314
				C6.0696,71.1279,0.5,80.7954,0.5,91.7403c0,17.4983,14.2374,31.7357,31.7357,31.7357c10.9449,0,20.6124-5.5696,26.3208-14.0232
				c1.1544,0.0833,2.3048,0.1388,3.4314,0.1388c2.6222,0,5.1908-0.2222,7.6979-0.6308l13.4917,4.4966l1.2555-3.7607l-7.5273-2.5111
				c18.9621-6.2777,32.6858-24.1588,32.6858-45.1976c0-1.1266-0.0555-2.277-0.1388-3.4314
				C117.9064,52.8481,123.476,43.1806,123.476,32.2357z M115.0303,47.3043c-1.4519-0.8906-3.8004-2.0727-7.2397-3.0863
				c0.9283-2.9514,1.5412-6.2817,1.7098-9.9987h9.9075C119.0667,39.0193,117.5117,43.4821,115.0303,47.3043z M115.0303,17.1672
				c2.4813,3.8222,4.0344,8.285,4.3775,13.085h-9.9075c-0.1706-3.717-0.7815-7.0473-1.7098-9.9987
				C111.23,19.24,113.5784,18.0578,115.0303,17.1672z M112.6164,13.9837c-1.2476,0.722-3.2747,1.6899-6.2301,2.5369
				c-2.1759-4.927-5.0975-8.5964-7.7058-11.1412C104.1648,6.7995,108.9906,9.8422,112.6164,13.9837z M93.7237,6.3017
				c2.5091,2.043,6.1012,5.6628,8.6916,11.1412c-2.4516,0.4522-5.3435,0.7716-8.6916,0.8668V6.3017z M93.7237,22.2747
				c3.9491-0.1051,7.325-0.5078,10.1713-1.075c0.8727,2.6658,1.4638,5.6787,1.6384,9.0526H93.7237V22.2747z M93.7237,34.2192
				h11.8117c-0.1706,3.3818-0.7537,6.3947-1.6146,9.0566c-2.8503-0.5693-6.2361-0.9739-10.1971-1.079L93.7237,34.2192
				L93.7237,34.2192z M93.7237,46.1598c3.3699,0.0952,6.2738,0.4185,8.7353,0.8747c-2.5904,5.53-6.2083,9.1439-8.7353,11.171
				V46.1598z M89.7568,6.266v12.0457c-3.3699-0.0952-6.2738-0.4185-8.7353-0.8747C83.6119,11.907,87.2298,8.2931,89.7568,6.266z
				 M77.0942,47.9509c2.1759,4.927,5.0975,8.5964,7.7058,11.1412c-5.4863-1.4182-10.3121-4.4628-13.936-8.6044
				C72.1117,49.7658,74.1408,48.7978,77.0942,47.9509z M68.4502,47.3043c-2.4813-3.8222-4.0364-8.285-4.3775-13.085h9.9075
				c0.1706,3.717,0.7815,7.0473,1.7098,9.9987C72.2505,45.2315,69.9021,46.4137,68.4502,47.3043z M81.0651,47.0266
				c2.4536-0.4522,5.3435-0.7716,8.6916-0.8668v12.008C87.2477,56.1268,83.6556,52.5069,81.0651,47.0266z M79.5855,43.2718
				c-0.8747-2.6658-1.4638-5.6787-1.6384-9.0526h11.8097v7.9776C85.8077,42.3019,82.4318,42.7046,79.5855,43.2718z M77.9451,30.2523
				c0.1706-3.3818,0.7537-6.3948,1.6146-9.0566c2.8503,0.5693,6.2361,0.9739,10.1971,1.079v7.9776H77.9451z M84.802,5.3794
				c-2.6083,2.5448-5.5319,6.2143-7.7058,11.1412c-2.9554-0.8469-4.9825-1.8149-6.2301-2.5369
				C74.4899,9.8422,79.3157,6.7995,84.802,5.3794z M68.4482,17.1672c1.4519,0.8906,3.8004,2.0727,7.2397,3.0863
				c-0.9283,2.9514-1.5392,6.2817-1.7098,9.9987h-9.9075C64.4138,25.4522,65.9688,20.9894,68.4482,17.1672z M32.2357,119.509
				c-15.3125,0-27.7688-12.4563-27.7688-27.7688s12.4563-27.7688,27.7688-27.7688s27.7688,12.4563,27.7688,27.7688
				S47.5482,119.509,32.2357,119.509z M75.3587,103.5221l2.396-7.1862l-3.7607-1.2555l-3.2192,9.6556
				c-2.8403,0.5832-5.7779,0.8886-8.7868,0.8886c-0.4026,0-0.8212-0.0496-1.2298-0.0615c2.037-4.1852,3.2132-8.8642,3.2132-13.8229
				c0-17.4983-14.2374-31.7357-31.7357-31.7357c-4.9587,0-9.6377,1.1762-13.8229,3.2132c-0.0119-0.4086-0.0615-0.8271-0.0615-1.2298
				c0-19.4084,12.7002-35.9229,30.2759-41.5599l-2.404,7.2139l3.7607,1.2555l3.2212-9.6635
				c3.2271-0.6565,6.5812-0.956,10.0265-0.8529c-2.045,4.1931-3.2271,8.884-3.2271,13.8546
				c0,17.4983,14.2374,31.7357,31.7357,31.7357c4.9587,0,9.6377-1.1762,13.8229-3.2132c0.0119,0.4086,0.0615,0.8271,0.0615,1.2298
				C105.6246,81.3865,92.8986,97.8613,75.3587,103.5221z M98.6785,59.0921c2.6083-2.5448,5.5319-6.2143,7.7058-11.1412
				c2.9554,0.8469,4.9825,1.8149,6.2301,2.5369C108.9906,54.6293,104.1648,57.6719,98.6785,59.0921z"/>
			<path fill="#0075D5" stroke="#FFFFFF" stroke-miterlimit="10" d="M36.2027,73.8889h-1.9835v-5.9504h-3.967v5.9504h-1.9835
				c-5.4685,0-9.9174,4.449-9.9174,9.9174c0,5.4685,4.449,9.9174,9.9174,9.9174h7.9339c3.2807,0,5.9505,2.6698,5.9505,5.9505
				c0,3.2807-2.6698,5.9504-5.9505,5.9504h-7.9339c-3.2807,0-5.9505-2.6698-5.9505-5.9504v-1.9835h-3.967v1.9835
				c0,5.4685,4.449,9.9174,9.9174,9.9174h1.9835v5.9504h3.967v-5.9504h1.9835c5.4685,0,9.9174-4.449,9.9174-9.9174
				s-4.449-9.9174-9.9174-9.9174h-7.9339c-3.2807,0-5.9505-2.6698-5.9505-5.9505c0-3.2807,2.6698-5.9504,5.9505-5.9504h7.9339
				c3.2807,0,5.9505,2.6698,5.9505,5.9504v1.9835h3.967v-1.9835C46.1201,78.3379,41.6712,73.8889,36.2027,73.8889z"/>
			<rect x="50.0871" y="89.7568" fill="#0075D5" stroke="#FFFFFF" stroke-miterlimit="10" width="3.967" height="3.967"/>
			<rect x="10.4174" y="89.7568" fill="#0075D5" stroke="#FFFFFF" stroke-miterlimit="10" width="3.967" height="3.967"/>
		</g>
	</g>
</g>
</svg>
